<?xml version="1.0" standalone="no"?>
<!DOCTYPE svg PUBLIC "-//W3C//DTD SVG 20010904//EN"
 "http://www.w3.org/TR/2001/REC-SVG-20010904/DTD/svg10.dtd">
<svg version="1.0" xmlns="http://www.w3.org/2000/svg"
  viewBox="0 0 481.000000 252.000000"
 preserveAspectRatio="xMidYMid meet">
<metadata>
Created by potrace 1.10, written by Peter Selinger 2001-2011
</metadata>
<g transform="translate(0.000000,252.000000) scale(0.100000,-0.100000)"
fill="#000000" stroke="none">
<path d="M908 1770 c-1 -5 -90 -97 -195 -203 -106 -106 -193 -195 -193 -198 0
-3 92 -98 204 -211 l204 -206 206 207 206 206 -207 208 c-114 114 -210 207
-214 207 -4 0 -9 -4 -11 -10z m-54 -163 c-156 -159 -194 -200 -194 -213 0 -6
19 -34 42 -63 62 -77 71 -74 203 65 61 64 113 121 117 128 4 6 8 34 8 61 l0
50 130 -130 c71 -71 130 -134 130 -139 0 -11 -351 -366 -362 -366 -9 0 -368
361 -368 370 0 3 82 87 182 187 162 162 184 181 198 168 13 -13 3 -27 -86
-118z m145 -7 l1 -65 -112 -112 c-61 -62 -115 -113 -119 -113 -9 0 -78 71 -79
81 0 3 64 72 143 153 78 82 144 153 146 160 8 20 19 -37 20 -104z"/>
<path d="M1046 1458 c-107 -106 -216 -228 -216 -241 0 -8 19 -36 43 -62 33
-37 47 -46 63 -41 11 3 62 48 112 100 l92 93 0 81 c0 60 -4 85 -16 96 -23 23
-31 20 -78 -26z m68 -4 c3 -9 6 -41 6 -71 l0 -56 -95 -96 -95 -95 -35 35 c-19
19 -35 38 -35 42 0 11 231 257 241 257 4 0 10 -7 13 -16z"/>
<path d="M3661 1493 c35 -38 106 -112 157 -167 l92 -98 0 164 0 164 -47 -1
-47 0 3 -65 c1 -35 4 -67 6 -70 2 -3 0 -12 -6 -20 -7 -12 -26 4 -90 73 -61 66
-87 87 -106 87 -24 0 -22 -5 38 -67z m219 -80 l0 -107 -30 29 c-27 26 -28 30
-15 49 9 12 15 44 15 78 0 45 3 58 15 58 12 0 15 -19 15 -107z"/>
<path d="M3570 1373 l0 -183 51 0 50 0 -3 100 c-2 55 -1 100 2 100 3 0 47 -45
99 -100 70 -76 98 -100 118 -100 22 0 10 16 -98 131 -68 72 -145 154 -171 182
l-47 52 -1 -182z m79 55 c8 -13 9 -23 2 -32 -6 -6 -11 -48 -13 -91 -2 -63 -6
-80 -18 -80 -12 0 -15 22 -18 123 -3 118 -2 122 16 111 11 -7 24 -21 31 -31z"/>
<path d="M1460 1535 c0 -2 14 -24 31 -48 l31 -44 99 -2 c64 -1 99 2 99 9 0 6
-12 28 -26 50 l-27 40 -103 0 c-57 0 -104 -2 -104 -5z m205 -45 c4 -6 -20 -10
-64 -10 -38 0 -73 5 -76 10 -4 6 20 10 64 10 38 0 73 -4 76 -10z"/>
<path d="M2152 1465 c29 -41 57 -81 62 -89 8 -11 -38 -83 -117 -183 -6 -9 -6
-13 1 -13 9 0 35 34 136 179 42 60 42 63 -13 139 -29 39 -35 42 -77 42 l-45 0
53 -75z m57 -4 c33 -41 37 -51 21 -51 -5 0 -23 20 -40 45 -38 55 -23 60 19 6z"/>
<path d="M2355 1428 c-43 -62 -93 -129 -109 -150 -17 -20 -39 -51 -49 -70
l-18 -33 26 30 c14 17 33 42 43 58 9 15 19 27 23 27 4 0 23 -23 43 -50 42 -58
50 -63 100 -58 l36 3 -60 80 c-33 44 -60 86 -60 93 0 7 24 45 53 85 65 87 71
97 60 97 -5 0 -44 -51 -88 -112z m-2 -159 c39 -56 28 -74 -11 -20 -18 24 -32
48 -32 53 0 18 16 5 43 -33z"/>
<path d="M2520 1535 c0 -4 13 -25 29 -48 l29 -42 123 0 124 0 -1 45 -1 45
-152 3 c-83 1 -151 0 -151 -3z m270 -46 c0 -5 -47 -9 -105 -9 -58 0 -105 4
-105 9 0 5 4 11 10 13 21 7 200 -4 200 -13z"/>
<path d="M2925 1510 c14 -28 20 -30 69 -30 60 0 90 -22 84 -62 -3 -20 -9 -23
-50 -26 -27 -2 -48 -5 -48 -7 0 -3 24 -52 52 -110 51 -101 54 -105 85 -105 18
0 33 3 33 6 0 4 -18 38 -40 76 l-40 69 29 25 c35 29 46 78 29 130 -17 51 -46
64 -141 64 l-78 0 16 -30z m166 -27 c13 -16 12 -17 -3 -4 -17 13 -22 21 -14
21 2 0 10 -8 17 -17z m-36 -143 c-3 -5 -10 -10 -16 -10 -5 0 -9 5 -9 10 0 6 7
10 16 10 8 0 12 -4 9 -10z"/>
<path d="M3260 1535 c0 -3 12 -23 26 -45 24 -36 30 -39 78 -42 l51 -3 5 -67
c7 -100 2 -112 -47 -116 -59 -4 -77 17 -70 85 l6 53 -45 0 -44 0 4 -75 c5 -87
21 -120 71 -141 69 -28 149 -10 190 44 17 23 20 43 20 132 0 121 -14 152 -75
170 -36 10 -170 14 -170 5z m188 -51 c20 -14 22 -23 22 -123 0 -100 -2 -109
-24 -130 -18 -17 -36 -22 -78 -22 -65 -1 -95 12 -108 47 -13 33 -13 104 0 104
6 0 10 -15 10 -34 0 -22 9 -45 26 -65 22 -26 33 -31 70 -31 70 0 84 21 84 125
0 102 -15 125 -79 125 -22 0 -43 5 -46 10 -10 17 98 12 123 -6z"/>
<path d="M1800 1346 l0 -186 115 0 114 0 -27 44 c-25 41 -31 45 -72 48 l-45 3
0 135 0 135 -42 3 -43 3 0 -185z m52 24 c3 -136 11 -151 74 -153 20 -1 39 -8
42 -15 3 -10 -12 -12 -65 -10 l-68 3 -2 148 c-1 81 2 147 7 147 5 0 10 -54 12
-120z"/>
<path d="M2885 1435 c3 -22 5 -91 5 -152 l0 -113 31 0 31 0 -4 88 c-3 73 -9
97 -36 152 -31 63 -32 64 -27 25z"/>
<path d="M1420 1280 l0 -120 155 0 154 0 -27 44 -27 45 -85 3 c-83 3 -85 4
-85 28 0 25 1 25 70 21 57 -3 68 -1 59 10 -5 8 -21 31 -34 51 l-25 38 -77 0
-78 0 0 -120z m150 70 c0 -5 -12 -10 -27 -10 -35 0 -63 -27 -63 -60 0 -49 18
-59 104 -62 53 -2 81 -7 84 -15 3 -10 -22 -13 -102 -13 l-106 0 0 85 0 85 55
0 c30 0 55 -4 55 -10z"/>
<path d="M2635 1392 c-3 -3 -5 -56 -5 -119 l0 -113 45 0 45 0 0 119 0 120 -40
-1 c-21 0 -41 -3 -45 -6z m55 -117 c0 -69 -3 -85 -15 -85 -12 0 -15 16 -15 85
0 69 3 85 15 85 12 0 15 -16 15 -85z"/>
<path d="M510 1299 c0 -27 27 -58 197 -232 108 -111 201 -203 205 -205 4 -2 8
9 8 24 0 21 -28 56 -133 163 -179 184 -251 261 -255 272 -8 21 -22 7 -22 -22z"/>
<path d="M1320 1303 c0 -5 -83 -93 -184 -196 -128 -130 -187 -197 -191 -217
-4 -17 -5 -30 -3 -30 2 0 92 88 199 195 153 154 195 202 197 225 2 17 -2 30
-7 30 -6 0 -11 -3 -11 -7z"/>
<path d="M1420 940 l0 -70 40 0 c45 0 52 15 15 32 -22 10 -25 18 -25 60 0 36
-4 48 -15 48 -12 0 -15 -14 -15 -70z"/>
<path d="M1581 963 c-14 -27 -31 -56 -39 -66 -17 -20 -8 -37 10 -19 15 15 73
16 100 1 26 -14 33 -6 16 20 -9 15 -20 20 -35 16 -36 -9 -55 3 -42 28 10 18
12 19 21 4 5 -10 16 -17 24 -17 12 0 11 7 -6 40 -11 22 -21 40 -23 40 -1 0
-13 -21 -26 -47z"/>
<path d="M1698 940 l-3 -70 33 0 c57 0 71 13 68 68 -3 63 -10 72 -56 72 l-38
0 -4 -70z m67 30 c0 -8 -8 -14 -17 -14 -10 1 -18 -2 -18 -7 0 -5 6 -9 14 -9 7
0 19 -7 26 -15 17 -21 -1 -39 -29 -30 -17 5 -21 14 -21 51 0 41 2 45 23 42 12
-2 22 -10 22 -18z"/>
<path d="M1846 996 c4 -11 19 -16 46 -16 54 0 45 24 -10 28 -34 3 -41 0 -36
-12z"/>
<path d="M1832 954 c2 -12 14 -21 33 -24 39 -7 28 -26 -12 -22 -27 3 -32 1
-27 -12 8 -22 50 -31 80 -17 37 17 30 63 -11 72 -16 4 -38 10 -49 14 -14 6
-17 4 -14 -11z"/>
</g>
</svg>
